# xmcd CD database file
# Copyright (C) 1993-1996 Ti Kan
#
# Track frame offsets:
# 150
# 17625
# 32343
# 49955
# 68200
# 77118
# 89900
# 128730
# 160050
#
# Disc length: 2545 seconds
# Revision: 0
# Processed by: cddbd v1.4b41PL1 Copyright (c) Steve Scherf et al.
# Submitted via: CDSpectrumPro v3.2.327
#
DISCID=6f09ef09
DTITLE=Tang Liangxing - High Mountain, Flowing Water - Traditional Chinese Pipa
DTITLE=Music
DYEAR=1900
DGENRE=
TTITLE0=Tianshanzhi Qun (Sping in the Tian Mountains)
TTITLE1=Lizu Wuqu (Dance of the Li People)
TTITLE2=Yangqun Baixue (Sunny Spring's White Snow)
TTITLE3=Meihua San Long (Threw Variations on "The Plum Blossom")
TTITLE4=Song Wo Yizhi Meigueihua (Give Me a Rose)
TTITLE5=Gaoshan Liushui (High Mountain, Flowing Water)
TTITLE6=Bawang Xiejia (The Warlord Casts Off His Armor)
TTITLE7=Xiyang Xiaogu (Flute and Drum at Sunset)
TTITLE8=Yizu Wuqu (Dance of the Yi People)
EXTD=
EXTT0=
EXTT1=
EXTT2=
EXTT3=
EXTT4=
EXTT5=
EXTT6=
EXTT7=
EXTT8=
PLAYORDER=
